<svg width="131" height="131" viewBox="0 0 131 131" fill="none" xmlns="http://www.w3.org/2000/svg">
<circle cx="65.5" cy="65.5" r="65.5" fill="#D9D9D9"/>
<path d="M65.5 62.5C68.8547 62.5 72.134 61.4883 74.9233 59.5929C77.7126 57.6974 79.8866 55.0033 81.1704 51.8513C82.4542 48.6993 82.7901 45.2309 82.1356 41.8847C81.4812 38.5385 79.8657 35.4649 77.4936 33.0524C75.1215 30.64 72.0993 28.9971 68.809 28.3315C65.5188 27.6659 62.1084 28.0075 59.0091 29.3131C55.9098 30.6187 53.2608 32.8297 51.397 35.6664C49.5332 38.5032 48.5385 41.8383 48.5385 45.25C48.5385 49.825 50.3255 54.2126 53.5064 57.4476C56.6873 60.6826 61.0015 62.5 65.5 62.5ZM65.5 67.4286C54.9869 67.4286 34 74.0329 34 87.1429V97H97V87.1429C97 74.0329 76.0131 67.4286 65.5 67.4286Z" fill="white"/>
</svg>
