<svg width="25" height="39" viewBox="0 0 25 39" fill="none" xmlns="http://www.w3.org/2000/svg">
<path d="M17.1061 19.5L0.918019 4.97341C0.322303 4.41993 -0.00732755 3.67862 0.000123627 2.90916C0.0075748 2.1397 0.351511 1.40365 0.957856 0.859543C1.5642 0.315433 2.38444 0.00679733 3.24191 0.000110938C4.09938 -0.00657546 4.92547 0.289222 5.54226 0.823795L24.0425 17.4252C24.6556 17.9755 25 18.7218 25 19.5C25 20.2782 24.6556 21.0245 24.0425 21.5748L5.54226 38.1762C4.92547 38.7108 4.09938 39.0066 3.24191 38.9999C2.38444 38.9932 1.5642 38.6846 0.957856 38.1405C0.351511 37.5963 0.0075748 36.8603 0.000123627 36.0908C-0.00732755 35.3214 0.322303 34.5801 0.918019 34.0266L17.1061 19.5V19.5Z" fill="#A568BB"/>
</svg>
