<svg width="52" height="52" viewBox="0 0 52 52" fill="none" xmlns="http://www.w3.org/2000/svg">
<path d="M48.6087 0H3.3913C2.49187 0 1.62928 0.357297 0.99329 0.99329C0.357297 1.62928 0 2.49187 0 3.3913V48.6087C0 49.5081 0.357297 50.3707 0.99329 51.0067C1.62928 51.6427 2.49187 52 3.3913 52H48.6087C49.5081 52 50.3707 51.6427 51.0067 51.0067C51.6427 50.3707 52 49.5081 52 48.6087V3.3913C52 2.49187 51.6427 1.62928 51.0067 0.99329C50.3707 0.357297 49.5081 0 48.6087 0ZM39.5652 28.2609H28.2609V39.5652H23.7391V28.2609H12.4348V23.7391H23.7391V12.4348H28.2609V23.7391H39.5652V28.2609Z" fill="#3B3D3F"/>
</svg>
