<svg width="15" height="24" viewBox="0 0 15 24" fill="none" xmlns="http://www.w3.org/2000/svg">
<path d="M10.2637 12L0.550811 3.06056C0.193382 2.71995 -0.00439653 2.26377 7.41761e-05 1.79025C0.00454488 1.31674 0.210907 0.863787 0.574714 0.52895C0.938521 0.194113 1.43066 0.00418297 1.94515 6.82695e-05C2.45963 -0.00404644 2.95528 0.177983 3.32536 0.506951L14.4255 10.7232C14.7934 11.0619 15 11.5211 15 12C15 12.4789 14.7934 12.9381 14.4255 13.2768L3.32536 23.493C2.95528 23.822 2.45963 24.004 1.94515 23.9999C1.43066 23.9958 0.938521 23.8059 0.574714 23.471C0.210907 23.1362 0.00454488 22.6833 7.41761e-05 22.2097C-0.00439653 21.7362 0.193382 21.28 0.550811 20.9394L10.2637 12V12Z" fill="#21272A"/>
</svg>
