<svg width="25" height="39" viewBox="0 0 25 39" fill="none" xmlns="http://www.w3.org/2000/svg">
<path d="M7.89387 19.5L24.082 4.97341C24.6777 4.41993 25.0073 3.67862 24.9999 2.90916C24.9924 2.1397 24.6485 1.40365 24.0421 0.859543C23.4358 0.315433 22.6156 0.00679733 21.7581 0.000110938C20.9006 -0.00657546 20.0745 0.289222 19.4577 0.823795L0.957508 17.4252C0.344417 17.9755 8.88542e-07 18.7218 8.88542e-07 19.5C8.88542e-07 20.2782 0.344417 21.0245 0.957508 21.5748L19.4577 38.1762C20.0745 38.7108 20.9006 39.0066 21.7581 38.9999C22.6156 38.9932 23.4358 38.6846 24.0421 38.1405C24.6485 37.5963 24.9924 36.8603 24.9999 36.0908C25.0073 35.3214 24.6777 34.5801 24.082 34.0266L7.89387 19.5V19.5Z" fill="#A568BB"/>
</svg>
